<?xml version="1.0" encoding="utf-8"?>
<!-- Generator: Adobe Illustrator 27.0.0, SVG Export Plug-In . SVG Version: 6.00 Build 0)  -->
<svg version="1.1" id="Layer_1" xmlns="http://www.w3.org/2000/svg" xmlns:xlink="http://www.w3.org/1999/xlink" x="0px" y="0px"
	 viewBox="0 0 49 46.7" style="enable-background:new 0 0 49 46.7;" xml:space="preserve">
<style type="text/css">
	.st0{fill:url(#Icon_awesome-linkedin-in_00000136392363592062757120000013985096117923146150_);}
</style>
<linearGradient id="Icon_awesome-linkedin-in_00000093175153447653905560000001658232270434988719_" gradientUnits="userSpaceOnUse" x1="14.1109" y1="20.5536" x2="37.2628" y2="20.5536">
	<stop  offset="0" style="stop-color:#D648A4"/>
	<stop  offset="0.2269" style="stop-color:#B558D5"/>
	<stop  offset="0.5078" style="stop-color:#4B8DF9"/>
	<stop  offset="0.719" style="stop-color:#3996FF"/>
	<stop  offset="1" style="stop-color:#CC33CC"/>
	<stop  offset="1" style="stop-color:#252C39"/>
	<stop  offset="1" style="stop-color:#000000"/>
</linearGradient>
<path id="Icon_awesome-linkedin-in" style="fill:url(#Icon_awesome-linkedin-in_00000093175153447653905560000001658232270434988719_);" d="
	M19.3,32.1h-4.8V16.7h4.8V32.1z M18.1,14.3c-2.2,0.9-4.3-0.8-4-3c0.2-1.2,1.1-2.1,2.2-2.3c1.8-0.3,3.3,1,3.3,2.7l0,0
	C19.7,12.8,19.1,13.9,18.1,14.3z M37.3,32.1h-4.8v-7.5c0-1.8,0-4.1-2.5-4.1c-2.5,0-2.9,1.9-2.9,4v7.6h-4.8V16.7h4.6v2.1H27
	c0.9-1.6,2.7-2.6,4.5-2.5c4.9,0,5.7,3.2,5.7,7.3L37.3,32.1L37.3,32.1z"/>
</svg>
