<?xml version="1.0" encoding="UTF-8"?>
<svg id="Layer_1" data-name="Layer 1" xmlns="http://www.w3.org/2000/svg" xmlns:xlink="http://www.w3.org/1999/xlink" viewBox="0 0 97.12 301.02">
  <defs>
    <linearGradient id="New_Gradient_Swatch_3" data-name="New Gradient Swatch 3" x1=".5" y1="268.79" x2="86.45" y2="268.79" gradientUnits="userSpaceOnUse">
      <stop offset="0" stop-color="#a14b9d"/>
      <stop offset=".29" stop-color="#ed3672"/>
      <stop offset=".52" stop-color="#765fa9"/>
      <stop offset=".87" stop-color="#47c7f0"/>
    </linearGradient>
    <linearGradient id="New_Gradient_Swatch_3-2" data-name="New Gradient Swatch 3" x1="0" x2="86.95" xlink:href="#New_Gradient_Swatch_3"/>
    <linearGradient id="New_Gradient_Swatch_3-3" data-name="New Gradient Swatch 3" x1="5.75" y1="265.74" x2="8.32" y2="265.74" xlink:href="#New_Gradient_Swatch_3"/>
    <linearGradient id="New_Gradient_Swatch_3-4" data-name="New Gradient Swatch 3" x1="5.25" y1="265.72" x2="8.82" y2="265.72" xlink:href="#New_Gradient_Swatch_3"/>
    <linearGradient id="New_Gradient_Swatch_3-5" data-name="New Gradient Swatch 3" x1="9.91" y1="260.48" x2="12.49" y2="260.48" xlink:href="#New_Gradient_Swatch_3"/>
    <linearGradient id="New_Gradient_Swatch_3-6" data-name="New Gradient Swatch 3" x1="9.41" y1="260.42" x2="12.99" y2="260.42" xlink:href="#New_Gradient_Swatch_3"/>
    <linearGradient id="New_Gradient_Swatch_3-7" data-name="New Gradient Swatch 3" x1="7.34" y1="252.91" x2="9.16" y2="252.91" xlink:href="#New_Gradient_Swatch_3"/>
    <linearGradient id="New_Gradient_Swatch_3-8" data-name="New Gradient Swatch 3" x1="6.84" y1="252.89" x2="9.66" y2="252.89" xlink:href="#New_Gradient_Swatch_3"/>
    <linearGradient id="New_Gradient_Swatch_3-9" data-name="New Gradient Swatch 3" x1="72.96" y1="273.44" x2="80.28" y2="273.44" xlink:href="#New_Gradient_Swatch_3"/>
    <linearGradient id="New_Gradient_Swatch_3-10" data-name="New Gradient Swatch 3" x1="72.46" y1="273.51" x2="80.86" y2="273.51" xlink:href="#New_Gradient_Swatch_3"/>
    <linearGradient id="New_Gradient_Swatch_3-11" data-name="New Gradient Swatch 3" x1="71.68" y1="270.49" x2="77.45" y2="270.49" xlink:href="#New_Gradient_Swatch_3"/>
    <linearGradient id="New_Gradient_Swatch_3-12" data-name="New Gradient Swatch 3" x1="71.16" y1="270.58" x2="78.02" y2="270.58" xlink:href="#New_Gradient_Swatch_3"/>
    <linearGradient id="New_Gradient_Swatch_3-13" data-name="New Gradient Swatch 3" x1="16.61" y1="124.49" x2="96.62" y2="124.49" xlink:href="#New_Gradient_Swatch_3"/>
    <linearGradient id="New_Gradient_Swatch_3-14" data-name="New Gradient Swatch 3" x1="16.11" y1="124.51" x2="97.12" y2="124.51" xlink:href="#New_Gradient_Swatch_3"/>
  </defs>
  <path d="M58.52,267.61c-4.09,2-8.15,3.97-12.19,5.97-.8,.4-1.32,.49-2.12-.24-3.58-3.31-7.28-6.49-10.93-9.72-.05-.04-.13-.05-.06-.03-9.69,7.52-19.32,14.99-29.21,22.66,.79,.22,1.29,.41,1.81,.49,5.83,.97,11.67,1.92,17.51,2.88,10.47,1.73,20.95,3.41,31.42,5.21,7.33,1.26,14.62,2.69,21.93,4.05,.22,.04,.44,.07,.65,.13,.54,.16,1.38,.13,1.18,.97-.19,.84-.96,.47-1.5,.37-12.48-2.27-24.94-4.66-37.45-6.79-8.93-1.52-17.93-2.61-26.88-4.05-3.72-.6-7.37-1.6-11.04-2.46-.64-.15-.95-.41-1.04-1.34-.52-5.25,1.04-10.28,1.5-15.42,.83-9.32,1.8-18.62,2.71-27.93,.15-1.57,.25-3.15,.45-4.71,.03-.24,.54-.6,.83-.6,.77,0,1.54,.15,2.31,.27,18.88,3.03,37.76,6.08,56.64,9.08,6.47,1.03,12.95,1.94,19.42,2.91,.62,.09,1.68,.04,1.78,.32,.26,.75,.24,1.66,.11,2.48-1.01,6.32-2.08,12.63-3.1,18.94-1.37,8.47-2.7,16.94-4.04,25.42-.06,.4-.03,.81-.11,1.21-.06,.29-.2,.77-.37,.8-.3,.05-.78-.07-.96-.29-.45-.58-.83-1.22-1.14-1.89-4.38-9.64-9.75-18.68-16.45-26.9-.49-.6-1.05-1.14-1.66-1.8Zm-50.12-28.85c.31,.37,.42,.54,.57,.68,2.81,2.67,5.59,5.39,8.46,8.01,7.75,7.08,15.52,14.13,23.3,21.17,1.29,1.16,2.65,2.24,4.03,3.29,.31,.23,.94,.37,1.27,.21,7.68-3.73,15.42-7.35,22.99-11.31,5.2-2.72,10.15-5.91,15.21-8.9,.34-.2,.61-.51,1.13-.96-25.79-4.09-51.24-8.12-76.95-12.19Zm-6.86,46.72c.62,.44,1.01,.33,1.62-.17,3.41-2.78,6.88-5.48,10.36-8.18,4.94-3.83,9.91-7.61,14.84-11.45,1.27-.99,2.43-2.11,3.67-3.18-8.51-7.76-16.88-15.39-25.44-23.19-.73,7.84-1.34,15.49-2.17,23.11-.84,7.68-1.91,15.33-2.88,23.06Zm76.39,10.09c3.03-14.06,4.01-28.17,6.86-42.25-8.2,5.27-16.44,9.7-24.89,13.65,7.5,8.62,13.01,18.29,18.02,28.6Z" style="fill: url(#New_Gradient_Swatch_3); stroke: url(#New_Gradient_Swatch_3-2); stroke-miterlimit: 10;"/>
  <path d="M7,272.08s-.24,.38-.42,.35c-.28-.05-.61-.35-.74-.62-.13-.27-.09-.65-.05-.98,.38-3.56,.76-7.11,1.2-10.66,.05-.4,.52-.75,.79-1.12,.19,.39,.57,.79,.53,1.16-.39,3.85-.84,7.69-1.31,11.87Z" style="fill: url(#New_Gradient_Swatch_3-3); stroke: url(#New_Gradient_Swatch_3-4); stroke-miterlimit: 10;"/>
  <path d="M11.4,265.09c-.33,.25-.65,.5-.98,.75-.18-.36-.53-.73-.5-1.06,.1-1.17,.35-2.33,.51-3.5,.25-1.71,.44-3.43,.73-5.14,.06-.36,.41-.68,.62-1.01,.25,.34,.69,.68,.71,1.03,.04,.87-.05,1.77-.21,2.64-.37,2.03-.8,4.05-1.21,6.07l.33,.22Z" style="fill: url(#New_Gradient_Swatch_3-5); stroke: url(#New_Gradient_Swatch_3-6); stroke-miterlimit: 10;"/>
  <path d="M8.61,256.57c-.09,.07-.37,.3-.66,.52-.21-.3-.62-.6-.61-.89,.04-1.51,.19-3.01,.29-4.51,.05-.7,.02-1.4,.12-2.09,.04-.3,.32-.57,.49-.86,.28,.24,.61,.43,.82,.72,.13,.18,.1,.5,.08,.75-.16,2.02-.34,4.03-.53,6.36Z" style="fill: url(#New_Gradient_Swatch_3-7); stroke: url(#New_Gradient_Swatch_3-8); stroke-miterlimit: 10;"/>
  <path d="M80.28,269.94c-.22,.33-.39,.62-.6,.87-1.84,2.16-3.67,4.33-5.56,6.45-.22,.25-.73,.23-1.11,.34,0-.37-.15-.86,.03-1.08,1.97-2.39,3.98-4.74,6.02-7.07,.16-.18,.6-.2,.88-.13,.15,.04,.23,.4,.34,.63Z" style="fill: url(#New_Gradient_Swatch_3-9); stroke: url(#New_Gradient_Swatch_3-10); stroke-miterlimit: 10;"/>
  <path d="M77.45,267.31c-.24,.48-.37,.88-.6,1.2-1.33,1.85-2.66,3.7-4.05,5.51-.19,.25-.72,.23-1.1,.34,.02-.4-.1-.89,.08-1.18,.55-.86,1.26-1.63,1.85-2.47,.84-1.21,1.6-2.47,2.46-3.66,.18-.26,.63-.41,.96-.44,.12-.01,.28,.48,.41,.7Z" style="fill: url(#New_Gradient_Swatch_3-11); stroke: url(#New_Gradient_Swatch_3-12); stroke-miterlimit: 10;"/>
  <g id="Layer0_25_FILL" data-name="Layer0 25 FILL">
    <path d="M16.62,42.72c.14,11.44,2.34,22.04,6.58,31.81,8.53,19.63,22.42,33.26,41.68,40.89,1.65,.66,3.27,.97,4.87,.94-12.33,7.9-15.43,19.42-9.31,34.57,.15,.37,.32,.73,.5,1.09,.37,.75,.82,1.44,1.33,2.08,.99,1.5,2.53,3.41,4.62,5.71,1.2,1.34,3.11,3.42,5.74,6.25,4.9,5.43,8.03,10.11,9.4,14.02,2.29,6.54,2.4,12.98,.35,19.31-2.21,6.78-6.7,12.65-13.48,17.61-6.79,4.94-13.34,10.01-19.63,15.2-6.31,5.18-8.16,10.61-5.54,16.29,.46-.06,.65-.3,.58-.7-1.06-5.85,1.47-11.12,7.59-15.82s12.71-9.73,19.78-15.11c7.06-5.39,11.57-11.28,13.54-17.69,1.97-6.41,1.68-13.13-.87-20.17-1.6-4.4-4.82-9.16-9.67-14.27-.36-.38-2.15-2.19-5.37-5.44-1.87-1.87-3.14-3.29-3.8-4.26-3.33-4.89-5.22-10.99-5.67-18.29-.47-7.3,2.83-12.92,9.88-16.84,.85,4.16,1.24,8.4,1.17,12.72,6.75-1.05,11.3-1.81,13.63-2.29-3.83-5.56-6.27-10.77-7.32-15.64,.19-.4,.27-.77,.24-1.12,3.53-2.43,6.03-5.82,7.51-10.16,3.23-9.51,5.76-18.54,7.6-27.08,1.91-8.93,3.25-18.18,4-27.75,.25-3.16-.04-7.62-.87-13.38-.69-4.61-1.32-7.9-1.9-9.88-2.97-10.05-8.51-17.07-16.62-21.07C69.3,.37,59.51-.49,47.76,1.64,26.72,7.61,16.34,21.3,16.62,42.72m7.84,29.44c-3.39-6.8-5.5-14.2-6.36-22.21C15.61,26.47,25.7,10.92,48.36,3.29c12.27-2.45,23.53-.25,33.77,6.61,2.24,1.5,4.31,4.12,6.22,7.87,1.66,3.26,2.77,6.44,3.35,9.51,2.5,13.05,2.75,26.47,.75,40.26-2.06,14.18-6.41,28.06-13.04,41.64-.74,1.52-1.88,2.47-3.43,2.86-10.5,2.66-19.91-.04-28.25-8.1-9.58-9.28-17.34-19.88-23.28-31.79m46.79,46.91c2.47-1.21,4.2-2.34,5.19-3.39,.15,5.6,1.96,9.95,5.41,13.07-2.95,.31-6.06,.87-9.34,1.69,0-.09,0-.19,.02-.29,.48-4.05,.05-7.75-1.28-11.09M37.56,17.08c-2.48,.38-5.71,5.04-9.68,13.98-3.45,7.78-1.63,19.37,5.46,34.77-1.84-15.42-.44-31.67,4.22-48.75m-6.11,40.8c-.07-.14-.13-.28-.18-.42-6.02-14.58-4.47-27.41,4.65-38.49-3.91,12.11-5.4,25.07-4.48,38.9Z" style="fill: url(#New_Gradient_Swatch_3-13); stroke: url(#New_Gradient_Swatch_3-14); stroke-miterlimit: 10;"/>
  </g>
</svg>