<?xml version="1.0" encoding="UTF-8"?>
<svg id="Layer_1" data-name="Layer 1" xmlns="http://www.w3.org/2000/svg" xmlns:xlink="http://www.w3.org/1999/xlink" viewBox="0 0 28.99 25.49">
  <defs>
    <linearGradient id="linear-gradient" x1="0" y1="12.74" x2="28.99" y2="12.74" gradientUnits="userSpaceOnUse">
      <stop offset="0" stop-color="#d648a4"/>
      <stop offset=".23" stop-color="#b558d5"/>
      <stop offset=".51" stop-color="#4b8df9"/>
      <stop offset=".72" stop-color="#3996ff"/>
      <stop offset="1" stop-color="#c3c"/>
      <stop offset="1" stop-color="#252c39"/>
      <stop offset="1" stop-color="#000"/>
    </linearGradient>
  </defs>
  <path id="Icon_awesome-linkedin-in" data-name="Icon awesome-linkedin-in" d="M14.49,0C6.48,0,0,5.86,0,13.07c0,5.62,3.99,10.61,9.91,12.39,.72,.12,.99-.28,.99-.63,0-.31-.01-1.34-.02-2.43-4.03,.79-4.88-1.54-4.88-1.54-.66-1.51-1.61-1.91-1.61-1.91-1.31-.81,.1-.79,.1-.79,1.45,.09,2.22,1.35,2.22,1.35,1.29,2,3.39,1.42,4.22,1.09,.13-.84,.51-1.42,.92-1.75-3.22-.33-6.61-1.45-6.61-6.46-.02-1.3,.51-2.55,1.49-3.51-.15-.33-.65-1.66,.14-3.46,0,0,1.21-.35,3.99,1.34,2.38-.59,4.88-.59,7.26,0,2.77-1.69,3.98-1.34,3.98-1.34,.79,1.8,.29,3.13,.14,3.46,.98,.95,1.51,2.21,1.49,3.51,0,5.02-3.39,6.12-6.62,6.45,.52,.41,.98,1.2,.98,2.42,0,1.75-.02,3.16-.02,3.59,0,.35,.26,.76,1,.63,7.59-2.29,11.69-9.69,9.16-16.54C26.26,3.6,20.73,0,14.49,0ZM5.49,18.76c-.03,.06-.15,.08-.25,.04s-.16-.13-.13-.2,.14-.09,.25-.04,.17,.13,.13,.2h0Zm.59,.59c-.07,.06-.2,.03-.3-.06s-.11-.21-.04-.27,.2-.03,.3,.06,.11,.21,.04,.27h0Zm.57,.75c-.09,.06-.23,0-.32-.11s-.09-.26,0-.31,.23,0,.32,.11,.09,.26,0,.31h0Zm.78,.73c-.08,.08-.25,.06-.37-.05s-.16-.26-.08-.33,.25-.06,.38,.05,.16,.26,.08,.33Zm1.08,.42c-.04,.1-.2,.15-.36,.1s-.27-.16-.24-.27,.2-.15,.36-.1,.27,.16,.24,.27h0Zm1.19,.08c0,.11-.14,.2-.3,.2s-.31-.08-.32-.19,.14-.2,.31-.2,.31,.08,.31,.19h0Zm1.1-.17c.02,.1-.1,.21-.27,.24s-.32-.04-.35-.14,.1-.22,.27-.24,.32,.04,.35,.14h0Z" style="fill: url(#linear-gradient);"/>
</svg>