<?xml version="1.0" encoding="UTF-8"?>
<svg id="Layer_1" data-name="Layer 1" xmlns="http://www.w3.org/2000/svg" xmlns:xlink="http://www.w3.org/1999/xlink" viewBox="0 0 333.72 428.91">
  <defs>
    <linearGradient id="linear-gradient" x1="22.5" y1="185.67" x2="141.47" y2="185.67" gradientUnits="userSpaceOnUse">
      <stop offset=".08" stop-color="#a14b9d"/>
      <stop offset=".35" stop-color="#ed3672"/>
      <stop offset=".64" stop-color="#765fa9"/>
      <stop offset=".87" stop-color="#47c7f0"/>
    </linearGradient>
    <linearGradient id="linear-gradient-2" x1="45.48" y1="65.83" x2="150.38" y2="65.83" xlink:href="#linear-gradient"/>
    <linearGradient id="linear-gradient-3" x1="106.68" y1="130.55" x2="226.78" y2="130.55" xlink:href="#linear-gradient"/>
    <linearGradient id="linear-gradient-4" x1="88.11" y1="80.47" x2="245.52" y2="80.47" xlink:href="#linear-gradient"/>
    <linearGradient id="linear-gradient-5" x1="45.66" y1="234.12" x2="288.06" y2="234.12" xlink:href="#linear-gradient"/>
    <linearGradient id="linear-gradient-6" x1="2.5" y1="323.96" x2="331.22" y2="323.96" xlink:href="#linear-gradient"/>
    <linearGradient id="linear-gradient-7" x1="0" y1="421.88" x2="333.72" y2="421.88" xlink:href="#linear-gradient"/>
    <linearGradient id="linear-gradient-8" x1="119.74" y1="341.34" x2="150.75" y2="341.34" xlink:href="#linear-gradient"/>
    <linearGradient id="linear-gradient-9" x1="127.97" y1="318.96" x2="209.66" y2="318.96" xlink:href="#linear-gradient"/>
    <linearGradient id="linear-gradient-10" x1="157.3" y1="356.63" x2="191" y2="356.63" xlink:href="#linear-gradient"/>
    <linearGradient id="linear-gradient-11" x1="198.3" y1="337.91" x2="225.85" y2="337.91" xlink:href="#linear-gradient"/>
    <linearGradient id="linear-gradient-12" x1="111.53" y1="328.55" x2="234.06" y2="328.55" xlink:href="#linear-gradient"/>
  </defs>
  <path d="M129.01,252.63c6.12-2.37,10.8-3.98,12.46-3.98-3.71-7.76-48.77,3.6-53.2-3.78-1.44-2.4-2.87-4.81-4.3-7.21-.36-.61-.72-1.22-1.1-1.84-3.65-6.14-7.23-12.32-10.79-18.51-.61-1.07-1.23-2.14-1.86-3.24-2.48-4.31-4.95-8.62-7.43-12.93-10.12-17.61-20.42-35.1-30.8-52.56-1.43-2.4-2.86-4.81-4.28-7.22-.41-.68-.81-1.36-1.23-2.07-3.06-5.17-4.46-8.86-3.83-14.93,3.09-4.54,5.71-5.56,10.94-5.66,6.8,2.19,10.12,10.48,13.38,16.23,.6,1.05,1.21,2.1,1.83,3.19,1.63,2.83,3.25,5.67,4.86,8.51,1.64,2.88,3.29,5.76,4.94,8.64,2.35,4.1,4.69,8.2,7.03,12.31,9.49,16.63,19.08,33.21,28.74,49.74,3.76,6.43-.62-26.76,11.19,19.34,2.49,4.33,5,8.65,7.5,12.97" style="fill: url(#linear-gradient);"/>
  <g>
    <path d="M78.98,95.15c-.2-42.5,29.7-79.3,71.4-87.8-26.7-9.4-57.1-10.7-76.3,1.5-37.7,24.3,30.1,100.9-28.6,99.7,0,0,7.9,19.1,40.7,23.1-4.6-11.6-7.1-24-7.2-36.5Z" style="fill: url(#linear-gradient-2);"/>
    <path d="M166.78,190.55c-32.5,0-58.3-42.8-60.1-81.4,34.3-2.7,85.1-33.1,93.6-38.6,16.3,2.8,27.7,17.6,26.4,34,.3,39.8-25.8,86-59.9,86Z" style="fill: url(#linear-gradient-3);"/>
    <path d="M97.54,104.59c.1-2.5,2.1-4.5,4.6-4.6,34,0,94.2-37.7,94.8-38,.7-.5,1.6-.7,2.4-.6,20.3,0,37.1,19.4,37.1,43.4,0,13.1-2.3,26.2-6.7,38.6,26.1-34.7,19.1-84.1-15.6-110.2s-84.1-19-110.2,15.7c-21.1,28-21.1,66.6,0,94.6-4.2-12.6-6.3-25.7-6.4-38.9Z" style="fill: url(#linear-gradient-4);"/>
    <path d="M201.76,185.67c-9.5,8.9-21.9,14-34.9,14.3-13-.5-25.4-5.5-34.9-14.3-20,29.2-86.3,10-86.3,70.5v26.4h242.4v-26.4c0-60.7-66.3-41.6-86.3-70.5Z" style="fill: url(#linear-gradient-5);"/>
  </g>
  <path d="M14.81,241.61c1.1,0,2.19-.01,3.32-.02,1.22,0,2.44,0,3.66,.01,1.29,0,2.59,0,3.88-.01,3.56-.01,7.12,0,10.69,0,3.84,0,7.68,0,11.52-.01,7.52-.01,15.05-.01,22.57,0,6.11,0,12.23,0,18.34,0q1.3,0,2.63,0c1.77,0,3.53,0,5.3,0,16.57-.01,33.15,0,49.72,0,15.17,0,30.34,0,45.51-.02,15.57-.02,31.13-.03,46.7-.02,8.74,0,17.49,0,26.23-.01,7.44-.01,14.89-.01,22.33,0,3.8,0,7.6,0,11.4,0,3.48-.01,6.95,0,10.43,0,1.26,0,2.52,0,3.78,0,1.71-.01,3.42,0,5.13,.01,.95,0,1.9,0,2.88,0,3.27,.47,5.09,1.58,7.67,3.43,3.18,4.15,3.09,8.47,2.16,13.31-.49,1.95-1.02,3.88-1.58,5.82-1.43,5.04-2.64,10.07-3.67,15.19-1.03,5.12-2.15,10.22-3.28,15.32-.2,.89-.39,1.78-.6,2.7-.82,3.71-1.64,7.43-2.46,11.14q-2.69,12.08-5.23,24.18c-1.76,8.65-3.69,17.28-5.59,25.91-.45,2.04-.9,4.08-1.35,6.12-1.28,5.81-2.56,11.62-3.85,17.42-.52,2.37-1.04,4.73-1.54,7.1-.29,1.31-.57,2.61-.86,3.92-.12,.57-.24,1.14-.36,1.73-.98,4.39-2.06,7.05-6.08,9.74-4.31,2.15-8.77,1.87-13.58,1.83-1.02,0-2.03,0-3.08,.01-2.81,.01-5.62,0-8.43,0-3.03,0-6.07,0-9.1,.01-5.94,.01-11.88,.01-17.82,0-4.83,0-9.66,0-14.48,0-.69,0-1.37,0-2.08,0-1.4,0-2.79,0-4.19,0-13.09,0-26.18,0-39.27-.02-11.23-.01-22.46-.01-33.69,0-13.04,.02-26.09,.02-39.13,.01-1.39,0-2.78,0-4.17,0-.68,0-1.37,0-2.07,0-4.82,0-9.64,0-14.47,0-5.88,0-11.75,0-17.63-.01-3,0-6-.01-8.99,0-3.25,.01-6.5,0-9.75-.02-.95,0-1.9,.01-2.87,.02-5.15-.05-8.25-.31-12.16-3.46q-1.17-1.28-1.89-2.53-.37-.61-.75-1.23c-2.24-4.92-3.05-10.09-3.95-15.32-1.65-9.23-3.52-18.4-5.48-27.58-.17-.81-.35-1.63-.52-2.47-4.53-21.35-9.24-42.68-13.96-64-1.08-4.88-2.15-9.76-3.21-14.64-.19-.87-.38-1.75-.58-2.65-.35-1.61-.7-3.22-1.04-4.83-.83-3.83-1.81-7.56-3.03-11.3-.54-3.85-.49-6.76,1.47-10.26,3.4-3.52,5.33-4.53,10.55-4.54Z" style="fill: url(#linear-gradient-6);"/>
  <path d="M9.19,415.14q1.7-.01,3.44-.03c1.25,0,2.5,.01,3.8,.02,1.34,0,2.68-.01,4.02-.02,3.69-.02,7.38-.01,11.07,0,3.98,0,7.95-.01,11.93-.02,7.79-.02,15.58-.03,23.38-.02,6.33,0,12.66,0,19,0,1.82,0,3.64,0,5.47,0,.91,0,1.81,0,2.75,0,17.16-.02,34.32-.02,51.48-.01,15.71,0,31.41-.02,47.12-.05,16.12-.03,32.23-.05,48.35-.04,9.05,0,18.11,0,27.16-.03,7.71-.02,15.41-.02,23.12,0,3.93,0,7.87,.01,11.8-.01,3.6-.02,7.2-.01,10.8,0,1.92,0,3.84-.01,5.77-.03q9.3,.1,12.45,3.03,1.69,2.63,1.63,5.25-.94,2.38-2.94,5.38-2.36,.37-5.38,.37c-1.15,0-2.3,.01-3.48,.02-1.27,0-2.55-.02-3.86-.03-1.36,0-2.72,0-4.08,0-3.75,0-7.49,0-11.24-.02-4.04-.01-8.07,0-12.11,0-7,0-13.99,0-20.99-.02-10.12-.02-20.23-.03-30.35-.04-16.41,0-32.82-.03-49.23-.05-15.94-.03-31.89-.05-47.83-.06-.98,0-1.96,0-2.98,0-4.93,0-9.85,0-14.78-.01-40.9-.03-81.8-.08-122.7-.15-2.11-3.76-2.17-5.78-1-10,2.42-3.32,4.45-3.38,8.43-3.38Z" style="fill: url(#linear-gradient-7);"/>
  <g>
    <path d="M120.24,328.55c0,20.8,12.09,38.78,29.62,47.3l-25.07-68.69c-2.92,6.54-4.55,13.77-4.55,21.39Z" style="fill: #f7f5f5; stroke: url(#linear-gradient-8); stroke-miterlimit: 10;"/>
    <path d="M208.27,325.9c0-6.49-2.33-10.99-4.33-14.49-2.66-4.33-5.16-7.99-5.16-12.32,0-4.83,3.66-9.33,8.82-9.33,.23,0,.45,.03,.68,.04-9.35-8.57-21.81-13.8-35.49-13.8-18.36,0-34.51,9.42-43.91,23.69,1.23,.04,2.4,.06,3.38,.06,5.5,0,14.01-.67,14.01-.67,2.83-.17,3.17,3.99,.34,4.33,0,0-2.85,.33-6.01,.5l19.14,56.92,11.5-34.49-8.19-22.43c-2.83-.17-5.51-.5-5.51-.5-2.83-.17-2.5-4.5,.33-4.33,0,0,8.68,.67,13.84,.67,5.5,0,14.01-.67,14.01-.67,2.83-.17,3.17,3.99,.34,4.33,0,0-2.85,.33-6.01,.5l18.99,56.49,5.24-17.52c2.27-7.27,4-12.49,4-16.99Z" style="fill: #f7f5f5; stroke: url(#linear-gradient-9); stroke-miterlimit: 10;"/>
    <path d="M173.72,333.15l-15.77,45.82c4.71,1.38,9.69,2.14,14.85,2.14,6.12,0,11.99-1.06,17.45-2.98-.14-.22-.27-.46-.37-.72l-16.16-44.26Z" style="fill: #f7f5f5; stroke: url(#linear-gradient-10); stroke-miterlimit: 10;"/>
    <path d="M218.91,303.34c.23,1.67,.35,3.47,.35,5.4,0,5.33-1,11.33-4,18.82l-16.05,46.41c15.62-9.11,26.13-26.04,26.13-45.43,0-9.14-2.33-17.73-6.44-25.21Z" style="fill: #f7f5f5; stroke: url(#linear-gradient-11); stroke-miterlimit: 10;"/>
    <path d="M172.79,267.29c-33.78,0-61.26,27.48-61.26,61.26s27.48,61.26,61.26,61.26,61.26-27.48,61.26-61.26c0-33.78-27.49-61.26-61.26-61.26Zm0,119.71c-32.23,0-58.45-26.22-58.45-58.46s26.22-58.45,58.45-58.45,58.45,26.22,58.45,58.45-26.22,58.46-58.45,58.46Z" style="fill: url(#linear-gradient-12); stroke: #464342; stroke-miterlimit: 10;"/>
  </g>
</svg>