<?xml version="1.0" encoding="UTF-8"?>
<svg id="Layer_1" data-name="Layer 1" xmlns="http://www.w3.org/2000/svg" xmlns:xlink="http://www.w3.org/1999/xlink" viewBox="0 0 168.56 171.31">
  <defs>
    <linearGradient id="New_Gradient_Swatch_5" data-name="New Gradient Swatch 5" x1="35.33" y1="84.16" x2="135.33" y2="84.16" gradientUnits="userSpaceOnUse">
      <stop offset=".35" stop-color="#ed3672"/>
      <stop offset=".39" stop-color="#e0407b"/>
      <stop offset=".47" stop-color="#c15c93"/>
      <stop offset=".57" stop-color="#8d89ba"/>
      <stop offset=".69" stop-color="#47c7f0"/>
    </linearGradient>
    <linearGradient id="New_Gradient_Swatch_5-2" data-name="New Gradient Swatch 5" x1="34.83" x2="135.83" xlink:href="#New_Gradient_Swatch_5"/>
    <linearGradient id="New_Gradient_Swatch_4" data-name="New Gradient Swatch 4" x1="1.27" y1="130.27" x2="114.01" y2="130.27" gradientUnits="userSpaceOnUse">
      <stop offset=".08" stop-color="#a14b9d"/>
      <stop offset=".35" stop-color="#ed3672"/>
      <stop offset=".64" stop-color="#765fa9"/>
      <stop offset=".87" stop-color="#47c7f0"/>
    </linearGradient>
    <linearGradient id="New_Gradient_Swatch_4-2" data-name="New Gradient Swatch 4" x1=".77" y1="130.49" x2="114.19" y2="130.49" xlink:href="#New_Gradient_Swatch_4"/>
    <linearGradient id="New_Gradient_Swatch_4-3" data-name="New Gradient Swatch 4" x1="42.09" y1="117.07" x2="160.92" y2="117.07" xlink:href="#New_Gradient_Swatch_4"/>
    <linearGradient id="New_Gradient_Swatch_4-4" data-name="New Gradient Swatch 4" x1="41.82" y1="117.27" x2="161.42" y2="117.27" xlink:href="#New_Gradient_Swatch_4"/>
    <linearGradient id="New_Gradient_Swatch_4-5" data-name="New Gradient Swatch 4" x1=".5" y1="85.66" x2="168.06" y2="85.66" xlink:href="#New_Gradient_Swatch_4"/>
    <linearGradient id="New_Gradient_Swatch_4-6" data-name="New Gradient Swatch 4" x1="0" y1="85.66" x2="168.56" y2="85.66" xlink:href="#New_Gradient_Swatch_4"/>
    <linearGradient id="New_Gradient_Swatch_4-7" data-name="New Gradient Swatch 4" x1="32.34" y1="141.5" x2="154.34" y2="141.5" xlink:href="#New_Gradient_Swatch_4"/>
    <linearGradient id="New_Gradient_Swatch_4-8" data-name="New Gradient Swatch 4" x1="32.01" y1="141.4" x2="155.16" y2="141.4" xlink:href="#New_Gradient_Swatch_4"/>
  </defs>
  <g id="SvgjsG1654">
    <path d="M53.15,56.73c16.49,0,29.89,6.91,29.89,27.06,0,15.82-11.91,27.81-29.89,27.81h-17.4c-.25,0-.42-.17-.42-.42s.17-.42,.42-.42h2.41c1.08,0,1.75-.83,1.75-1.75V59.31c0-.92-.67-1.75-1.75-1.75h-2.41c-.25,0-.42-.17-.42-.42s.17-.42,.42-.42h17.4Zm0,54.04c12.24,0,24.48-9.74,24.48-26.98s-11.32-26.23-24.48-26.23h-6.24c-1.08,0-1.75,.83-1.75,1.75v49.71c0,.92,.67,1.75,1.75,1.75h6.24Zm51.71,0c.25,0,.42,.17,.42,.42s-.17,.42-.42,.42h-13.57c-.25,0-.42-.17-.42-.42s.17-.42,.42-.42h2.41c1.08,0,1.75-.83,1.75-1.75V59.31c0-.92-.67-1.75-1.75-1.75h-2.41c-.25,0-.42-.17-.42-.42s.17-.42,.42-.42h13.57c.25,0,.42,.17,.42,.42s-.17,.42-.42,.42h-2.41c-1.08,0-1.75,.83-1.75,1.75v49.71c0,.92,.67,1.75,1.75,1.75h2.41Zm30.06,0c.25,0,.42,.17,.42,.42s-.17,.42-.42,.42h-14.74c-.25,0-.42-.17-.42-.42s.17-.42,.42-.42h2c1.67,0,1.92-1,1.17-1.92l-20.48-24.15,24.56-25.4c.67-.67,.75-1.75-.92-1.75h-4.75c-.25,0-.42-.17-.42-.42s.17-.42,.42-.42h12.91c.25,0,.42,.17,.42,.42s-.17,.42-.42,.42h-.92c-2.75,0-3.91,.5-5.08,1.75l-21.73,22.48,22.98,27.06c1,1.25,2,1.92,3.75,1.92h1.25Z" style="fill: url(#New_Gradient_Swatch_5); stroke: url(#New_Gradient_Swatch_5-2); stroke-miterlimit: 10;"/>
  </g>
  <g id="SvgjsG3052">
    <path d="M20.91,140.06c1.67,1.96,3.43,3.84,5.28,5.63,6.23,6.13,13.65,11.28,21.62,15.18,2.94,1.37,5.64,2.8,8.82,4.02,.79,.3,1.6,.63,2.45,.92,.86,.27,1.75,.54,2.68,.81,.93,.29,1.91,.49,2.94,.71,1.03,.21,2.1,.44,3.26,.56-5.71-1.2-11.28-3.01-16.6-5.4-5.36-2.42-10.45-5.39-15.2-8.87-9.5-6.96-17.63-15.9-23.56-26.11-.25-.31-.62-.89-1.06-1.63l-.72-1.21-.72-1.4c-.48-.97-1.03-1.95-1.46-2.91-.38-.83-.78-1.66-1.19-2.48,1.84,4.59,3.97,8.61,6.36,12.44,1.1,1.75,2.26,3.46,3.48,5.13-.17-.23-.35-.46-.53-.69,1.31,1.81,2.69,3.56,4.14,5.26v.02s.01,0,.01,0Zm-4.16-5.28l-.11-.15,.11,.15ZM1.7,96.02l-.44-3.49c.23,2.13,.5,4.51,.99,6.89l-.29-1.69c-.11-.57-.19-1.14-.26-1.71Zm76.09,71.64c5.99,.61,12.28,.43,18.43-.55,6.16-.97,12.18-2.69,17.78-4.91-10.31,4.06-21.26,5.86-31.97,5.56-1.43-.02-2.85,0-4.24-.1Z" style="fill: url(#New_Gradient_Swatch_4); stroke: url(#New_Gradient_Swatch_4-2); stroke-miterlimit: 10;"/>
    <path d="M42.32,155.4l-.23-.15c.08,.05,.15,.1,.23,.15Zm8.69,4.79c4.94,2.3,10.11,4.05,15.42,5.24-8.73-1.99-16.94-5.5-24.12-10.03,2.76,1.75,5.65,3.38,8.69,4.79h0Zm108.92-63.22c.09-1.42,.27-2.92,.31-3.63,.54-4.57,.69-8.47,.67-12.38-.1-.71-.38-2.03-.5-3.53-.14-1.51-.34-2.98-.51-4.44-.26-1.44-.48-2.87-.77-4.27,2.05,10.46,2.01,20.97,.13,30.88,.21-.88,.43-1.76,.66-2.64h0Z" style="fill: url(#New_Gradient_Swatch_4-3); stroke: url(#New_Gradient_Swatch_4-4); stroke-miterlimit: 10;"/>
    <path d="M1.3,75.7c.76-6.22,2.39-12.27,3.94-16.31l-.63,2.95c.39-.87,1.01-2.88,1.86-5.01l.61-1.62,.68-1.57c.45-1.02,.83-1.98,1.23-2.72-.27,.69-.54,1.44-.85,2.19-.31,.75-.66,1.52-.99,2.29l1.36-3.07c-1.38,3.45-2.56,6.97-3.55,10.55-1.02,3.92-1.83,8.04-2.26,11.74-.13,.92-.17,1.82-.25,2.68-.06,.86-.16,1.68-.17,2.45-.04,1.55-.09,2.9-.06,3.99,.09,2.17,.23,3.25,.41,2.65,.37-1.2,.36-7.38,1.65-15.1,.69-3.85,1.68-8.08,3.03-12.22,1.34-4.14,3.09-8.16,4.9-11.7l-.53,1.16-.49,1.2-1.01,2.42-.92,2.5-.47,1.26c-.14,.43-.28,.86-.42,1.29-1.19,3.43-2.08,7.04-2.85,10.68l-.5,2.75c-.18,.91-.26,1.84-.4,2.76-.29,1.84-.39,3.69-.55,5.52-.18,3.67-.22,7.29,.12,10.76-.01-.82-.03-1.55-.02-2.26l.1-2.12c.04-.73,.04-1.5,.1-2.39,.06-.89,.12-1.88,.17-3.06,.35-5.95,1.42-11.84,3.07-17.55,1.58-5.73,3.44-10.77,6.21-15.34l.72-1.37c.49-.92,.89-1.83,1.41-2.76,.59-1.02,1.15-1.78,1.61-2.48,.47-.69,.87-1.3,1.32-1.89l3.32-4.58c.07,0-.02,.17-.18,.43,.55-.78,1.14-1.53,1.76-2.24,.68-.79,1.34-1.62,1.9-2.31,.13,0,.26,0,.56-.23,7.79-8.28,17.38-15.04,28.19-19.29l2.4-.94,2.43-.81,1.21-.4,1.23-.34,2.44-.68c1.4-.34,2.81-.68,4.25-.98l2.2-.38c.74-.13,1.48-.27,2.24-.34,1.51-.18,2.82-.56,3.53-.66,3.94-.22,7.86-.18,12.47,.19,.36,0,.91,.04,1.56,.07,.65,.04,1.38,.05,2.1,.12,.84,.19,1.74,.38,2.68,.56,5.74,.89,11.28,2.48,16.56,4.6v-.03s2.01,.81,2.01,.81l2.06,.95c1.42,.62,2.8,1.4,4.23,2.15,.72,.37,1.4,.81,2.11,1.22,.69,.43,1.42,.81,2.09,1.27,1.36,.9,2.74,1.77,4,2.73,2.05,1.48,4.03,3.04,5.94,4.68,.04,.04,.08,.07,.13,.11l.04,.03,1.31,1.19,1.26,1.25,1.26,1.25c.42,.42,.8,.87,1.2,1.31-.19-.32-.19-.44-.18-.57-.62-.59-1.35-1.3-2.08-1.99,1.21,1.1,2.27,2.1,3.13,2.91,.33,.43,.7,.85,1.04,1.31l1.07,1.41,1.14,1.47,1.13,1.58c2.01,2.56,3.78,5.29,5.46,8.08,.78,1.43,1.64,2.82,2.33,4.3l1.09,2.19,.98,2.25c.28,.48,.17,.02,.21-.06,1.1,2.67,1.99,5.44,2.79,8.24,1.54,5.05,2.56,10.25,3.07,15.5,.2,1.24,.29,2.5,.47,3.74l-.11,2.63c0,.99,.05,1.99,0,2.98l-.12,3c-.01,.68-.11,1.41-.17,2.21-.08,.8-.12,1.66-.23,2.57l-.37,2.88c-.12,1.01-.35,2.04-.53,3.13-.88,4.75-2.18,9.42-3.88,13.95-.22,.74-.38,1.34-.53,1.67-.56,1.35-1.17,2.66-1.75,3.95-.65,1.26-1.25,2.51-1.92,3.7-2.06,3.91-4.46,7.64-7.16,11.15-.3,.4-.58,.8-.89,1.17l-.9,1.09c-.59,.7-1.13,1.4-1.69,2.01-1.13,1.22-2.07,2.35-2.96,3.2-1.02,1.06-.93,1.11-.22,.6,.49-.36,.98-.74,1.45-1.14l1.91-1.72c.7-.61,1.37-1.3,2.01-1.95,.64-.65,1.28-1.25,1.77-1.79,.99-1.07,1.64-1.73,1.5-1.44-1.6,3.01-4.52,6.73-8.78,10.84-2.17,2.01-4.62,4.19-7.51,6.29-1.41,1.1-2.98,2.11-4.58,3.2-1.65,1.01-3.34,2.12-5.19,3.1-4.04,2.2,3.03-1.33,3.22-1.36-.68,.54-1.4,1.03-2.14,1.48-1.33,.71-2.65,1.44-4.03,2.05-.81,.37-1.6,.77-2.41,1.12l-2.46,1.01,1.3-.51c2.66-1.06,5.14-2.3,7.39-3.53-.84,.51-1.77,1.1-2.78,1.63-1.08,.56-2.21,1.17-3.33,1.72l-3.27,1.52c11.68-4.24,22.42-11.27,30.91-20.42,4.25-4.56,8.05-9.58,11.14-15,3.11-5.41,5.62-11.15,7.47-17.11-2.84,8.94-7.27,17.16-12.59,24.11,9.68-13.07,15.45-29.09,16.21-45.61,0,.91-.09,1.82-.15,2.72-.07,.91-.11,1.82-.22,2.72-.23,1.81-.4,3.62-.74,5.41-.56,3.6-1.47,7.14-2.51,10.64,2.04-6.32,3.25-12.99,3.73-19.7,.5-6.71,.08-13.46-.95-20.01,1.78,8.67,2.07,18.49,.56,28.19,1.06-6.26,1.33-12.71,.93-19.11-.09-2.44-.38-4.87-.62-7.12-.34-2.23-.6-4.29-.93-5.95,1.3,6.15,1.82,11.39,2.07,16.34-.24-10.79-2.48-21.72-6.86-31.99,2.4,5.58,4.36,11.58,5.56,17.74,1.21,6.16,1.71,12.46,1.42,18.53-.01-.71,.02-1.42-.03-2.13l-.1-2.15c.26,9.77-1.25,19.46-4.23,28.57-1.5,4.55-3.35,8.98-5.58,13.19-2.23,4.2-4.81,8.22-7.71,11.99,3.31-3.86,6.8-9.33,9.59-15.33,2.78-6.01,4.84-12.51,6.25-18.19-2.08,10.2-6.22,20.26-12.22,29.25-5.99,8.99-13.83,16.9-22.9,22.97-9.06,6.09-19.34,10.3-29.89,12.38-5.24,1.04-10.56,1.59-15.9,1.63-5.24,.03-10.48-.43-15.64-1.36l2.71,.51c.9,.17,1.82,.27,2.73,.4,1.82,.29,3.65,.4,5.48,.57,3.67,.21,7.36,.28,11.03,0,3.68-.2,7.34-.74,10.99-1.42,1.81-.41,3.64-.75,5.42-1.27,.9-.25,1.8-.47,2.69-.75l2.66-.86c-1.34,.42-2.76,.97-4.27,1.37l-1.89,.56c3.97-1.06,7.86-2.41,11.63-4.05,1.72-.75,3.42-1.57,5.09-2.44-3.12,1.66-6.35,3.12-9.65,4.39-6.3,2.35-12.84,3.98-19.51,4.85-1,.16-1.91,.21-2.73,.29l-2.19,.22c-1.29,.1-2.24,.15-2.9,.22-1.33,.13-1.52,.26-.99,.36,.53,.1,1.78,.18,3.31,.23,1.53,0,3.34-.09,4.99-.24,16.57-1.7,31.79-8.2,43.98-17.94,12.2-9.74,21.54-22.67,26.75-37.35,.33-.85,.58-1.73,.85-2.6,.26-.87,.56-1.74,.79-2.62,.44-1.77,.97-3.53,1.3-5.33l.56-2.69,.44-2.71,.22-1.36,.15-1.37,.31-2.73c.63-7.31,.38-14.7-.73-21.94-.59-4.1-1.64-8.97-2.99-13.31l-1.04-3.14c-.36-1-.74-1.94-1.08-2.82l-.5-1.27-.51-1.14-.88-1.91c-2.82-5.73-6.37-11.19-10.52-16.27-4.15-5.08-8.91-9.79-14.29-13.89l-2.02-1.53-2.1-1.45-1.05-.73-1.08-.68-2.18-1.36c-2.97-1.72-6.01-3.37-9.21-4.74-3.17-1.44-6.49-2.61-9.87-3.65-1.71-.47-3.41-.99-5.16-1.35-.87-.19-1.74-.42-2.62-.57l-2.65-.47c-6.34-1.12-12.94-1.38-19.53-.89-6.59,.51-13.2,1.76-19.54,3.92l-2.37,.82c-.79,.27-1.56,.61-2.34,.92-.77,.32-1.56,.61-2.32,.96l-2.28,1.06c-.77,.34-1.51,.73-2.25,1.12l-2.22,1.17-2.16,1.27c-.72,.43-1.45,.84-2.14,1.31l-2.09,1.38c-.7,.45-1.36,.97-2.04,1.45-.67,.5-1.36,.96-2.01,1.49l-1.94,1.56c-.66,.51-1.28,1.06-1.89,1.61l-1.86,1.65-1.78,1.73c-.59,.58-1.19,1.14-1.74,1.76-4.53,4.77-8.51,9.98-11.77,15.49-3.19,5.4-5.81,11.13-7.81,17.08C1.23,70.13,.09,81.93,.62,92.59c-.11-4.39-.13-10.68,.68-16.89Zm127.12,81.47c2.74-1.77,5.37-3.69,7.9-5.75-2.56,2.11-5.19,4.05-7.9,5.75Zm36.23-48.89c-.27,.81-.5,1.61-.79,2.38l-.86,2.27-.42,1.12-.46,1.11c-.31,.75-.61,1.5-.9,2.25-1.67,4.15-3.65,8.17-5.93,12.02-2.27,3.85-4.9,7.46-7.71,10.84-1.39,1.71-2.9,3.3-4.39,4.88l-2.32,2.27c-.76,.76-1.6,1.44-2.39,2.17-.66,.58-1.33,1.14-2,1.7,2.5-2.05,4.87-4.25,7.11-6.59-3.24,3.36-6.76,6.43-10.53,9.18-.93,.65-1.83,1.35-2.8,1.96l-2.92,1.86-3.09,1.76c-1.05,.58-2.16,1.1-3.27,1.67,.8-.47,1.6-.92,2.42-1.36,.92-.51,1.88-1.11,2.83-1.67,.95-.54,1.81-1.14,2.53-1.63s1.28-.91,1.57-1.18c-.42,.28-.84,.56-1.27,.83,.46-.3,.91-.61,1.36-.91-.02,.02-.06,.05-.09,.08,9.85-6.72,18.24-15.56,24.52-25.64,6.31-10.07,10.42-21.42,12.12-32.97-.37,4.63-1.22,8.33-2.29,11.58h0Zm-13.6-70.3c2.71,4.09,5.05,8.42,7,12.93,.23,.49,.44,1,.65,1.5,4.47,10.95,6.5,22.69,6.21,34.26,.08-3.83-.18-7.65-.6-11.45-.48-4.37-1.37-8.69-2.54-12.92-2.31-8.47-6.06-16.5-10.81-23.83,.44,.6,.9,1.26,1.37,1.95,.51,.72,.99,1.46,1.43,2.22l-.57-1-.62-.97-1.24-1.94c-.84-1.28-1.76-2.52-2.64-3.78-.96-1.2-1.86-2.44-2.86-3.61-.75-.86-1.47-1.75-2.24-2.59,2.7,2.84,5.23,5.89,7.48,9.23h0ZM87.77,1.54c1.32,.07,2.65,.2,3.97,.3,1.08,.09,2.16,.25,3.23,.37,.32,.01,.66,.04,1.08,.08,.42,.06,.93,.17,1.59,.32,4.93,.82,9.42,2.06,12.61,3.33,6.12,2.32,11.82,5.2,16.99,8.53,5.17,3.32,9.81,7.1,13.73,11.23,1.81,1.96,1.28,1.53,.28,.58l1.5,1.59c-.66-.66-1.31-1.33-1.99-1.98l-2.07-1.88c.5,.44,1.73,1.5,2.56,2.27-6.66-6.79-14.44-12.43-22.86-16.58-8.43-4.15-17.5-6.71-26.57-7.73,1.46,.16,2.17,.2,2.85,.22-.98-.11-1.96-.27-2.95-.36-1.33-.09-2.66-.21-3.98-.27l-3.93-.09c1.3,0,2.62,.04,3.94,.07h0Z" style="fill: url(#New_Gradient_Swatch_4-5); stroke: url(#New_Gradient_Swatch_4-6); stroke-miterlimit: 10;"/>
    <path d="M104.93,166.86l.38-.11c-.4,.11-.8,.23-1.2,.33,.27-.07,.55-.14,.82-.22Zm40.07-34.71c3.81-5.03,7.19-11.05,9.34-16.23h-.03c-5.46,12.91-14.31,24.02-25.37,32.2,1.96-1.36,3.89-2.78,5.78-4.24,2.43-2.54,6.5-6.67,10.27-11.74h0Zm-112.66,15.04c6.46,5.78,14.25,10.8,22.92,14.19,3.38,1.27,6.83,2.39,10.36,3.17,1.75,.45,3.54,.73,5.31,1.06,.89,.16,1.79,.25,2.68,.37,.9,.12,1.79,.25,2.69,.3-4.07-.45-8.11-1.13-12.04-2.2-3.93-1.07-7.78-2.39-11.5-4.01-3.7-1.65-7.28-3.55-10.71-5.69-3.41-2.17-6.64-4.59-9.71-7.2Zm79.74,10.3l-2,.78-2.04,.68c-1.35,.49-2.74,.85-4.13,1.24,1.4-.35,2.8-.68,4.17-1.13l2.06-.63,2.01-.73c-.08-.04-.54,.05-.06-.21Zm-23.59,5.12c-1.04,.09-2.1,.08-3.15,.09-1.05,.01-2.11,.04-3.16-.03l1.42,.13c.43,.03,.83,.06,1.17,.1,1.24-.11,2.48-.14,3.72-.29h0Zm-41.65-9.69c1.21,.71,2.49,1.33,3.76,2.02,.32,.17,.9,.37,1.62,.64-1.55-.67-3.04-1.49-4.55-2.26-.75-.4-1.47-.84-2.2-1.26-.73-.42-1.46-.83-2.15-1.3l.84,.56,.88,.53,1.79,1.06Z" style="fill: url(#New_Gradient_Swatch_4-7); stroke: url(#New_Gradient_Swatch_4-8); stroke-miterlimit: 10;"/>
  </g>
</svg>